<?xml version="1.0" encoding="UTF-8" standalone="no"?>
<!-- Created with Inkscape (http://www.inkscape.org/) -->

<svg
   xmlns:dc="http://purl.org/dc/elements/1.1/"
   xmlns:cc="http://creativecommons.org/ns#"
   xmlns:rdf="http://www.w3.org/1999/02/22-rdf-syntax-ns#"
   xmlns:svg="http://www.w3.org/2000/svg"
   xmlns="http://www.w3.org/2000/svg"
   xmlns:sodipodi="http://sodipodi.sourceforge.net/DTD/sodipodi-0.dtd"
   xmlns:inkscape="http://www.inkscape.org/namespaces/inkscape"
   width="744.09448819"
   height="1052.3622047"
   id="svg3754"
   version="1.1"
   inkscape:version="0.48.4 r9939"
   sodipodi:docname="tinypeople.svg"
   inkscape:export-filename="/home/vanessa/Documents/Dropbox/Code/psiturk/psiturk.github.io/static/images/tinypeople.png"
   inkscape:export-xdpi="473.74567"
   inkscape:export-ydpi="473.74567">
  <defs
     id="defs3756">
    <inkscape:path-effect
       effect="spiro"
       id="path-effect4335"
       is_visible="true" />
    <inkscape:path-effect
       effect="spiro"
       id="path-effect4331"
       is_visible="true" />
    <inkscape:path-effect
       effect="spiro"
       id="path-effect4327"
       is_visible="true" />
    <inkscape:path-effect
       effect="spiro"
       id="path-effect4323"
       is_visible="true" />
    <inkscape:path-effect
       effect="spiro"
       id="path-effect4319"
       is_visible="true" />
    <inkscape:path-effect
       effect="spiro"
       id="path-effect4315"
       is_visible="true" />
    <inkscape:path-effect
       effect="spiro"
       id="path-effect4311"
       is_visible="true" />
    <inkscape:path-effect
       effect="spiro"
       id="path-effect4307"
       is_visible="true" />
    <inkscape:path-effect
       effect="spiro"
       id="path-effect4303"
       is_visible="true" />
    <inkscape:path-effect
       effect="spiro"
       id="path-effect4299"
       is_visible="true" />
    <inkscape:path-effect
       effect="spiro"
       id="path-effect4295"
       is_visible="true" />
    <inkscape:path-effect
       effect="spiro"
       id="path-effect3775"
       is_visible="true" />
  </defs>
  <sodipodi:namedview
     id="base"
     pagecolor="#ffffff"
     bordercolor="#666666"
     borderopacity="1.0"
     inkscape:pageopacity="0.0"
     inkscape:pageshadow="2"
     inkscape:zoom="0.98994949"
     inkscape:cx="330.30075"
     inkscape:cy="520"
     inkscape:document-units="px"
     inkscape:current-layer="layer1"
     showgrid="false"
     inkscape:window-width="1535"
     inkscape:window-height="848"
     inkscape:window-x="65"
     inkscape:window-y="24"
     inkscape:window-maximized="0" />
  <metadata
     id="metadata3759">
    <rdf:RDF>
      <cc:Work
         rdf:about="">
        <dc:format>image/svg+xml</dc:format>
        <dc:type
           rdf:resource="http://purl.org/dc/dcmitype/StillImage" />
        <dc:title></dc:title>
      </cc:Work>
    </rdf:RDF>
  </metadata>
  <g
     inkscape:label="Layer 1"
     inkscape:groupmode="layer"
     id="layer1">
    <path
       style="fill:#000000;fill-opacity:0.76712329;stroke:none"
       d="m 714.57752,781.6311 4.04061,0 0.50508,-4.29315 c -0.008,-4.79916 -0.0918,-9.5982 -0.25254,-14.39468 -0.0903,-2.69358 -0.2047,-5.38655 -0.25254,-8.08122 -0.0344,-1.93592 -0.0344,-3.87245 0,-5.80837 -0.50959,-2.4248 -0.93086,-4.86816 -1.26269,-7.32361 -0.0909,-0.67257 -0.17508,-1.34605 -0.25254,-2.0203 l 0,-2.27285 0.25254,-1.76776 3.03046,2.0203 1.26269,2.77792 1.51523,0.50508 2.77792,-1.26269 0.75761,-3.78808 -0.75761,-1.51523 -0.75762,-0.75761 -2.27284,-1.01015 c -1.06519,-1.20513 -2.15996,-2.38412 -3.28299,-3.53554 -0.41563,-0.42613 -0.83515,-0.84852 -1.2627,-1.26269 -0.81361,-0.78816 -1.65616,-1.54646 -2.52538,-2.27284 l 1.01016,-2.52538 0,-3.283 -0.75762,-2.27284 -2.27284,-1.26269 -1.76777,-0.25254 -1.51523,0 -3.03045,2.52538 -0.25254,1.01015 -0.25254,3.03046 0.25254,1.01015 -0.75762,2.27285 -3.53553,1.76776 -3.283,5.55584 -2.27284,2.52539 c -0.64621,-0.23359 -1.3741,-0.23359 -2.02031,0 -0.36478,0.13186 -0.70775,0.34975 -0.92985,0.66775 -0.11105,0.159 -0.19073,0.33894 -0.24141,0.52615 -0.0507,0.1872 -0.0721,0.38088 -0.0914,0.57386 l -0.25253,2.52538 7.07106,0.50508 2.52538,-6.06092 -0.75761,12.12183 -1.51523,11.61676 0,8.08122 0,9.84899 -1.76777,1.51523 -1.26269,2.52538 4.79823,1.26269 3.03046,-1.01015 0,-14.64722 1.01015,-9.59645 1.76777,-3.28299 c 1.13013,3.58479 2.14103,7.20717 3.03045,10.85914 0.34788,1.42839 0.67716,2.86122 1.01016,4.29315 0.333,1.43192 0.66971,2.86297 1.01015,4.29314 l 1.01015,3.03046 -0.25254,6.31346"
       id="path3773"
       inkscape:path-effect="#path-effect3775"
       inkscape:original-d="m 714.57752,781.6311 4.04061,0 0.50508,-4.29315 -0.25254,-14.39468 -0.25254,-8.08122 0,-5.80837 -1.26269,-7.32361 -0.25254,-2.0203 0,-2.27285 0.25254,-1.76776 3.03046,2.0203 1.26269,2.77792 1.51523,0.50508 2.77792,-1.26269 0.75761,-3.78808 -0.75761,-1.51523 -0.75762,-0.75761 -2.27284,-1.01015 -3.28299,-3.53554 -1.2627,-1.26269 -2.52538,-2.27284 1.01016,-2.52538 0,-3.283 -0.75762,-2.27284 -2.27284,-1.26269 -1.76777,-0.25254 -1.51523,0 -3.03045,2.52538 -0.25254,1.01015 -0.25254,3.03046 0.25254,1.01015 -0.75762,2.27285 -3.53553,1.76776 -3.283,5.55584 -2.27284,2.52539 c 0,0 -1.01015,0.25253 -2.02031,0 -1.01015,-0.25254 -1.26269,1.76776 -1.26269,1.76776 l -0.25253,2.52538 7.07106,0.50508 2.52538,-6.06092 -0.75761,12.12183 -1.51523,11.61676 0,8.08122 0,9.84899 -1.76777,1.51523 -1.26269,2.52538 4.79823,1.26269 3.03046,-1.01015 0,-14.64722 1.01015,-9.59645 1.76777,-3.28299 3.03045,10.85914 1.01016,4.29315 1.01015,4.29314 1.01015,3.03046 z"
       inkscape:connector-curvature="0" />
    <path
       style="fill:#000000;fill-opacity:0.86757992;stroke:none"
       d="m 693.86939,798.55115 -14.14213,-0.75762 c 0.29957,-5.30557 0.6363,-10.60904 1.01015,-15.9099 0.23755,-3.36828 0.49009,-6.7355 0.75761,-10.10153 l -0.25254,-6.06091 -1.76776,-9.09137 0,16.66751 c -0.4323,3.20974 -0.93755,6.40966 -1.51523,9.59645 -0.45939,2.53424 -0.96457,5.06017 -1.51523,7.57615 l 2.52538,-1.26269 0.50508,3.03045 -5.55584,2.02031 -8.5863,0.75761 -0.25254,-2.77792 c 0.32539,-0.76258 0.66216,-1.52031 1.01016,-2.27284 0.71117,-1.53786 1.46925,-3.05403 2.27284,-4.54569 l 2.27284,-6.81853 1.01016,-6.56599 c -0.0193,-6.39844 0.0649,-12.79719 0.25253,-19.1929 0.12354,-4.2106 0.29191,-8.41989 0.50508,-12.6269 l -0.50508,-12.62691 -1.51523,-4.54569 1.51523,-3.28299 c -0.35573,-0.91891 -0.69254,-1.84515 -1.01015,-2.77792 -0.56668,-1.66428 -1.07222,-3.34938 -1.51523,-5.05076 l 1.76777,-2.52539 4.29315,-1.76776 2.52538,-0.25254 3.53553,-4.54569 5.3033,-8.08122 -0.25253,4.29315 0.50507,3.283 -2.77792,3.28299 -2.0203,3.78807 0.50507,5.80838 -0.75761,2.27284 -0.50508,2.27285 4.29315,9.59645 1.26269,4.29315 3.03046,5.3033 c 1.69382,1.33401 3.37748,2.68093 5.05076,4.04061 1.43876,1.16911 2.86985,2.34765 4.29315,3.53553 l 2.02031,2.02031 -1.76777,2.27284 -5.55584,-1.26269 -6.06092,-4.54569 c -0.58034,9.4998 -0.83308,19.0196 -0.75761,28.53681 0.0461,5.81106 0.21449,11.62115 0.50508,17.42513 l -0.50508,4.79823 7.32361,1.51523 -0.75762,1.26269"
       id="path4293"
       inkscape:path-effect="#path-effect4295"
       inkscape:original-d="m 693.86939,798.55115 -14.14213,-0.75762 1.01015,-15.9099 0.75761,-10.10153 -0.25254,-6.06091 -1.76776,-9.09137 0,16.66751 -1.51523,9.59645 -1.51523,7.57615 2.52538,-1.26269 0.50508,3.03045 -5.55584,2.02031 -8.5863,0.75761 -0.25254,-2.77792 1.01016,-2.27284 2.27284,-4.54569 2.27284,-6.81853 1.01016,-6.56599 0.25253,-19.1929 0.50508,-12.6269 -0.50508,-12.62691 -1.51523,-4.54569 1.51523,-3.28299 -1.01015,-2.77792 -1.51523,-5.05076 1.76777,-2.52539 4.29315,-1.76776 2.52538,-0.25254 3.53553,-4.54569 5.3033,-8.08122 -0.25253,4.29315 0.50507,3.283 -2.77792,3.28299 -2.0203,3.78807 0.50507,5.80838 -0.75761,2.27284 -0.50508,2.27285 4.29315,9.59645 1.26269,4.29315 3.03046,5.3033 5.05076,4.04061 4.29315,3.53553 2.02031,2.02031 -1.76777,2.27284 -5.55584,-1.26269 -6.06092,-4.54569 -0.75761,28.53681 0.50508,17.42513 -0.50508,4.79823 7.32361,1.51523 z"
       inkscape:connector-curvature="0" />
    <path
       style="fill:#000000;fill-opacity:0.15525118;stroke:#000000;stroke-width:1px;stroke-linecap:butt;stroke-linejoin:miter;stroke-opacity:0.07762559"
       d="m 35.28571,807.86218 40.35715,-1.07143 -0.35715,-9.64285 -18.92857,0.71428 0,-10 L 36,788.57647 35.28571,807.86218"
       id="path4297"
       inkscape:path-effect="#path-effect4299"
       inkscape:original-d="m 35.28571,807.86218 40.35715,-1.07143 -0.35715,-9.64285 -18.92857,0.71428 0,-10 L 36,788.57647 z"
       inkscape:connector-curvature="0" />
    <path
       style="fill:#000000;fill-opacity:0.15525118;stroke:#000000;stroke-width:1px;stroke-linecap:butt;stroke-linejoin:miter;stroke-opacity:0.07762559"
       d="m 56,788.21932 5.35714,-12.5 L 61,788.57647 l -4.64286,10 L 56,788.21932"
       id="path4301"
       inkscape:path-effect="#path-effect4303"
       inkscape:original-d="m 56,788.21932 5.35714,-12.5 L 61,788.57647 l -4.64286,10 z"
       inkscape:connector-curvature="0" />
    <path
       style="fill:#000000;fill-opacity:0.15525118;stroke:#000000;stroke-width:1px;stroke-linecap:butt;stroke-linejoin:miter;stroke-opacity:0.07762559"
       d="m 76,806.79075 5,-14.28571 0.35714,-12.5 L 74.92857,797.1479 76,806.79075"
       id="path4313"
       inkscape:path-effect="#path-effect4315"
       inkscape:original-d="m 76,806.79075 5,-14.28571 0.35714,-12.5 -6.42857,17.14286 z"
       inkscape:connector-curvature="0" />
    <path
       style="fill:#000000;fill-opacity:0.15525118;stroke:#000000;stroke-width:1px;stroke-linecap:butt;stroke-linejoin:miter;stroke-opacity:0.07762559"
       d="m 62.07143,779.29075 18.21428,0.35715 -5,17.5 -17.5,1.07142 3.92858,-10 0.35714,-8.92857"
       id="path4317"
       inkscape:path-effect="#path-effect4319"
       inkscape:original-d="m 62.07143,779.29075 18.21428,0.35715 -5,17.5 -17.5,1.07142 3.92858,-10 z"
       inkscape:connector-curvature="0" />
    <path
       style="fill:#000000;fill-opacity:0.93150689;stroke:none"
       d="m 58.5,702.50504 11.78571,5.71428 6.07143,3.92858 -11.78571,15 -4.28572,3.92857 c -0.521065,5.11474 -0.997279,10.23405 -1.42857,15.35714 -0.720806,8.56209 -1.316128,17.13475 -1.78571,25.71429 l 4.28571,4.28571 -1.42857,2.5 -12.5,-2.5 2.5,-36.42857 -3.57143,3.57143 -1.42857,23.57143 -1.42857,7.14285 -10,-1.07143 3.57143,-6.42857 c 0.07418,-6.90544 0.193234,-13.81039 0.35714,-20.71428 0.101759,-4.28617 0.220807,-8.57194 0.35714,-12.85715 l 2.85715,-7.14285 -0.71429,-13.57143 -6.42857,8.92857 0.35714,11.78571 -0.71428,2.14286 c -0.271421,2.06339 -0.51203,4.13083 -0.72172,6.20141 -0.128118,1.2651 -0.244695,2.53136 -0.34971,3.79859 l -2.5,9.64286 0,9.64286 -0.35714,5 1.42857,2.5 2.5,3.21428 0.35714,1.78572 -15.35714,0.35714 0,-16.07143 1.07143,-13.57143 -2.85715,-15.35714 0.35715,-9.28572 -1.78572,-8.21428 3.57143,-8.21429 1.42857,-2.14285 c -0.364583,-1.54589 -0.721732,-3.09353 -1.07143,-4.64286 -0.241653,-1.07063 -0.479748,-2.14207 -0.71428,-3.21429 l 4.28571,-5 7.85714,2.14286 1.78572,5.71429 -0.35714,7.14285 -2.14286,1.07143 2.5,4.28572 5.71428,-7.5 7.5,-4.28572 1.07143,0 1.78572,-5 -1.07143,-3.92857 2.5,-4.28571 5,-0.35715 4.64286,1.78572 2.14285,4.28571 -1.78571,5.35714 -1.07143,4.28572"
       id="path4321"
       inkscape:path-effect="#path-effect4323"
       inkscape:original-d="m 58.5,702.50504 11.78571,5.71428 6.07143,3.92858 -11.78571,15 -4.28572,3.92857 -1.42857,15.35714 -1.78571,25.71429 4.28571,4.28571 -1.42857,2.5 -12.5,-2.5 2.5,-36.42857 -3.57143,3.57143 -1.42857,23.57143 -1.42857,7.14285 -10,-1.07143 3.57143,-6.42857 0.35714,-20.71428 0.35714,-12.85715 2.85715,-7.14285 -0.71429,-13.57143 -6.42857,8.92857 0.35714,11.78571 -0.71428,2.14286 -0.72172,6.20141 -0.34971,3.79859 -2.5,9.64286 0,9.64286 -0.35714,5 1.42857,2.5 2.5,3.21428 0.35714,1.78572 -15.35714,0.35714 0,-16.07143 1.07143,-13.57143 -2.85715,-15.35714 0.35715,-9.28572 -1.78572,-8.21428 3.57143,-8.21429 1.42857,-2.14285 -1.07143,-4.64286 -0.71428,-3.21429 4.28571,-5 7.85714,2.14286 1.78572,5.71429 -0.35714,7.14285 -2.14286,1.07143 2.5,4.28572 5.71428,-7.5 7.5,-4.28572 1.07143,0 1.78572,-5 -1.07143,-3.92857 2.5,-4.28571 5,-0.35715 4.64286,1.78572 2.14285,4.28571 -1.78571,5.35714 z"
       inkscape:connector-curvature="0"
       sodipodi:nodetypes="cccccccccccccccccccccccccccccccccccccccccccccccccccccccccc"
       inkscape:export-xdpi="473.74567"
       inkscape:export-ydpi="473.74567" />
    <path
       style="fill:#000000;fill-opacity:0.15525118;stroke:#000000;stroke-width:1px;stroke-linecap:butt;stroke-linejoin:miter;stroke-opacity:0.07762559"
       d="m 47.42857,775.36218 -14.28571,-0.71428 0.71428,-1.42858 13.57143,2.14286"
       id="path4325"
       inkscape:path-effect="#path-effect4327"
       inkscape:original-d="m 47.42857,775.36218 -14.28571,-0.71428 0.71428,-1.42858 z"
       inkscape:connector-curvature="0" />
    <path
       style="fill:#000000;fill-opacity:0.15525118;stroke:#000000;stroke-width:1px;stroke-linecap:butt;stroke-linejoin:miter;stroke-opacity:0.07762559"
       d="m 17.78571,777.1479 -0.71428,30.71428 18.57143,0 0,-20 20,-0.35714 5,-9.28572 -26.42857,-5 -2.5,1.42858 1.78571,1.78571 -15.71429,0.71429"
       id="path4329"
       inkscape:path-effect="#path-effect4331"
       inkscape:original-d="m 17.78571,777.1479 -0.71428,30.71428 18.57143,0 0,-20 20,-0.35714 5,-9.28572 -26.42857,-5 -2.5,1.42858 1.78571,1.78571 z"
       inkscape:connector-curvature="0" />
    <path
       style="fill:#ffffff;fill-opacity:0.93150689;stroke:none"
       d="m 59.92857,713.57647 0.47619,6.79803 0,1.41625 5.2381,-5.09852 -5.71429,-3.11576"
       id="path4333"
       inkscape:path-effect="#path-effect4335"
       inkscape:original-d="m 59.92857,713.57647 0.47619,6.79803 0,1.41625 5.2381,-5.09852 z"
       inkscape:connector-curvature="0" />
  </g>
</svg>
